<?xml version="1.0" encoding="UTF-8" standalone="no"?><!DOCTYPE svg PUBLIC "-//W3C//DTD SVG 1.1//EN" "http://www.w3.org/Graphics/SVG/1.1/DTD/svg11.dtd"><svg width="100%" height="100%" viewBox="0 0 67 67" version="1.1" xmlns="http://www.w3.org/2000/svg" xmlns:xlink="http://www.w3.org/1999/xlink" xml:space="preserve" xmlns:serif="http://www.serif.com/" style="fill-rule:evenodd;clip-rule:evenodd;stroke-linejoin:round;stroke-miterlimit:1.41421;"><path d="M48.804,37.444c-0.012,0.26 -0.009,0.523 -0.036,0.78c-0.065,0.609 -0.115,1.221 -0.219,1.826c-0.094,0.55 -0.189,1.094 -0.319,1.637c-0.062,0.257 -0.124,0.517 -0.183,0.775c-0.071,0.292 -0.174,0.581 -0.263,0.868c-0.16,0.529 -0.346,1.046 -0.532,1.569c-0.183,0.511 -0.405,1.01 -0.617,1.513c-0.243,0.585 -0.527,1.146 -0.807,1.714c-0.236,0.485 -0.526,0.945 -0.794,1.412c-0.27,0.473 -0.589,0.919 -0.884,1.377c-0.296,0.449 -0.635,0.875 -0.958,1.306c-0.671,0.902 -1.403,1.755 -2.171,2.577c-0.343,0.369 -0.68,0.739 -1.044,1.087c-0.393,0.379 -0.776,0.777 -1.19,1.138l-1.409,1.232c-0.426,0.372 -0.893,0.7 -1.339,1.046c-0.863,0.674 -1.776,1.294 -2.722,1.853c-0.954,0.564 -1.914,1.113 -2.907,1.61c-0.863,0.428 -1.744,0.801 -2.642,1.149c-0.822,0.32 -1.675,0.55 -2.518,0.811c-0.747,0.229 -1.512,0.409 -2.269,0.614c-0.859,0.233 -1.719,0.46 -2.585,0.677c-0.127,0.032 -0.254,0.046 -0.379,0.046c-0.66,0 -1.273,-0.42 -1.459,-1.089c-0.216,-0.786 0.26,-1.62 1.046,-1.839c1.466,-0.404 2.931,-0.815 4.397,-1.223c0.653,-0.183 1.297,-0.396 1.944,-0.6c0.619,-0.192 1.218,-0.425 1.821,-0.659c0.562,-0.245 1.124,-0.492 1.669,-0.774l1.25,-0.647c0.357,-0.183 0.7,-0.399 1.049,-0.597c0.271,-0.153 0.546,-0.298 0.806,-0.469c0.428,-0.284 0.86,-0.568 1.288,-0.848c0.525,-0.347 1.021,-0.74 1.521,-1.122c0.535,-0.45 1.088,-0.884 1.603,-1.361c0.594,-0.546 1.19,-1.087 1.752,-1.666c0.301,-0.307 0.6,-0.615 0.898,-0.922c0.301,-0.314 0.577,-0.659 0.86,-0.984c0.441,-0.503 0.848,-1.033 1.259,-1.562c0.303,-0.444 0.609,-0.888 0.916,-1.333c0.304,-0.441 0.561,-0.923 0.842,-1.381c0.266,-0.437 0.485,-0.913 0.724,-1.368c0.211,-0.401 0.384,-0.825 0.568,-1.239c0.396,-1.004 0.785,-2.01 1.072,-3.054c0.079,-0.284 0.16,-0.571 0.236,-0.854c0.089,-0.313 0.136,-0.645 0.204,-0.961c0.094,-0.449 0.155,-0.904 0.219,-1.358c0.038,-0.463 0.097,-0.926 0.106,-1.389c0.012,-0.565 0.024,-1.127 0.015,-1.691c-0.012,-0.564 -0.039,-1.122 -0.074,-1.684c-0.028,-0.493 -0.086,-0.979 -0.136,-1.469c-0.232,-1.612 -0.514,-3.219 -0.948,-4.793c-0.234,-0.847 -0.47,-1.692 -0.748,-2.528c-0.272,-0.829 -0.567,-1.639 -0.888,-2.45c-0.732,-1.716 -1.522,-3.404 -2.407,-5.047c-0.858,-1.593 -1.87,-3.112 -2.963,-4.552c0.013,0.017 0.027,0.034 0.041,0.052c-0.026,-0.034 -0.051,-0.066 -0.077,-0.099c-0.002,-0.003 -0.004,-0.005 -0.005,-0.007c0,0.002 0.002,0.003 0.004,0.005c-0.254,-0.325 -0.507,-0.649 -0.766,-0.97c-0.079,0.06 1.037,-0.827 0.764,-0.608c0.502,0.573 1.003,1.145 1.483,1.735c0.671,0.824 1.277,1.696 1.88,2.571c0.591,0.854 1.111,1.749 1.628,2.65c0.511,0.893 0.99,1.814 1.433,2.745c0.478,1.014 0.963,2.027 1.359,3.079c0.381,1.008 0.754,2.021 1.052,3.058c0.322,1.118 0.618,2.237 0.866,3.378c0.233,1.066 0.405,2.163 0.514,3.25c0.059,0.594 0.11,1.182 0.142,1.779c0.033,0.55 0.039,1.102 0.05,1.652c0.003,0.209 -0.014,0.42 -0.023,0.626" style="fill:#ff3a29;fill-rule:nonzero;"/><path d="M29.938,0.507l13.003,8.168l-8.38,6.476l-4.623,-14.644Z" style="fill:#ff3a29;"/></svg>